# xmcd CD database file
#
# Track frame offsets:
#	150
#	15916
#	30161
#	45426
#	58473
#	70137
#	84130
#	95459
#	110174
#	123229
#	135997
#	149878
#	165556
#	181204
#	191482
#	208153
#	222597
#	237778
#	249184
#	264650
#
# Disc length: 3726 seconds
#
# Revision: 5
# Processed by: cddbd v1.5.2PL0 Copyright (c) Steve Scherf et al.
# Submitted via: CDex 1.79
#
DISCID=160e8c14
DTITLE=Glenn Miller Orchestra - In The Mood - The Definitive Collection 1
DYEAR=2003
DGENRE=Jazz
TTITLE0=Chattanooga Choo Choo
TTITLE1=Elmer's Tune
TTITLE2=Stardust
TTITLE3=Stairway To The Stars
TTITLE4=The Woodpecker Song
TTITLE5=Juke Box Saturday Night
TTITLE6=Over The Rainbow
TTITLE7=A String Of Pearls
TTITLE8=When You Wish Upon A Star
TTITLE9=Imagination
TTITLE10=Beat Me Daddy, Eight To The Bar
TTITLE11=Tuxedo Junction
TTITLE12=Serenade In Blue
TTITLE13=Danny Boy
TTITLE14=A Nightingale Sang In Berkeley Square
TTITLE15=Blue Rain
TTITLE16=Along The Santa Fe Trail
TTITLE17=Give A Little Whistle
TTITLE18=The Boogie Woogie Piggy
TTITLE19=Moonlight Cocktail
EXTD=YEAR: 2003
EXTT0=
EXTT1=
EXTT2=
EXTT3=
EXTT4=
EXTT5=
EXTT6=
EXTT7=
EXTT8=
EXTT9=
EXTT10=
EXTT11=
EXTT12=
EXTT13=
EXTT14=
EXTT15=
EXTT16=
EXTT17=
EXTT18=
EXTT19=
PLAYORDER=
